<?xml version="1.0" encoding="utf-8"?>
<!-- Generator: Adobe Illustrator 26.3.1, SVG Export Plug-In . SVG Version: 6.00 Build 0)  -->
<svg version="1.1" xmlns="http://www.w3.org/2000/svg" xmlns:xlink="http://www.w3.org/1999/xlink" x="0px" y="0px"
	 viewBox="0 0 602.4 269.8" style="enable-background:new 0 0 602.4 269.8;" xml:space="preserve">
<style type="text/css">
	.st0{fill:#9C8070;}
</style>
<g id="Layer_1">
</g>
<g id="圖層_3">
	<g>
		<g>
			<g>
				<path class="st0" d="M302,56.6c-0.3,0-0.6-0.1-0.8-0.3c-0.7-0.5-0.8-1.4-0.4-2c5.2-7.7,6.1-13.5,6.9-19.2c0.3-2,0.6-4.2,1.1-6.3
					c1.2-5.2,2.8-9.5,4.7-13.1c-2.4-0.3-4.8-0.8-7.1-1.2c-3.8-0.7-7.8-1.4-11.7-1.7c-6.8-0.6-16.3-0.1-23,5.4
					c-1.7,1.4-3.9,3.7-4.2,6.7c-0.1,0.8-0.9,1.4-1.7,1.3c-0.8-0.1-1.4-0.8-1.3-1.7c0.5-3.9,3.1-6.8,5.3-8.6
					c7.5-6.2,17.8-6.7,25.2-6.1c4,0.4,8.1,1.1,12,1.8c2.7,0.5,5.5,1,8.3,1.3c1.6-2.4,3.5-4.4,5.7-6c3.4-2.6,8.7-4.6,13.4-2.5
					c1.8,0.8,3.6,2.4,3.6,4.7c0,1.8-1.3,3.5-3.5,4.8c-3.8,2.1-8.3,2.8-14.5,2.4c-1.1-0.1-2.1-0.2-3.2-0.3c-2.1,3.5-3.7,7.9-5,13.4
					c-0.5,2-0.8,4-1.1,6.1c-0.9,6-1.8,12.2-7.3,20.4C302.9,56.4,302.4,56.6,302,56.6z M318.5,13.4c0.5,0,1,0.1,1.5,0.1
					c5.6,0.3,9.7-0.3,12.9-2.1c0.6-0.3,2-1.2,2-2.2c0-0.8-0.9-1.6-1.8-2c-3.5-1.5-7.7,0.1-10.5,2.2
					C321.1,10.5,319.8,11.8,318.5,13.4z"/>
				<path class="st0" d="M319.1,57.1c-1,0-1.8-0.3-2.4-0.7c-1.1-0.8-1.8-2.2-1.9-4c-0.1-2.7,0.9-5.1,1.8-7.4
					c0.7-1.6,1.3-3.2,1.5-4.7c0,0,0-0.1,0-0.1c-0.2,0-0.5,0.2-0.8,0.3c-4.9,2.9-10.1,8.6-14,15.2c-0.4,0.7-1.3,0.9-2,0.5
					c-0.7-0.4-0.9-1.3-0.5-2c4.1-7,9.7-13.1,15-16.3c2-1.2,4-1,4.9,0.5c0.5,0.9,0.4,1.9,0.3,2.3c-0.3,1.9-1,3.7-1.7,5.4
					c-0.9,2.1-1.7,4.1-1.6,6.2c0,0.8,0.3,1.5,0.6,1.7c0.5,0.4,1.5,0.2,2.8-0.5c1.3-0.7,2.5-1.4,3.7-2.2l0.6-0.4
					c1.2-0.7,2.3-1.5,3.4-2.3c-0.4-3.1,0.5-6.7,2.5-9c1.9-2.1,4.3-2.9,7-2.2c0.9,0.2,1.5,0.6,1.9,1.3c0.6,0.9,0.6,2.1,0,3.4
					c-1.2,2.4-3.4,4.1-5.3,5.6l-0.7,0.5c-0.7,0.5-1.3,1-2,1.5c0.3,0.7,0.8,1.4,1.5,1.8c0.6,0.4,1.4,0.5,2.6,0.5
					c3.9,0.1,7.8-1.3,10.9-3.7c0.3-0.3,0.7-0.4,1.1-0.3c0.4,0.1,0.8,0.3,1,0.6l0,0c0,0,4.2,4.8,27.5,4.8h33.3c0.8,0,1.5,0.7,1.5,1.5
					s-0.7,1.5-1.5,1.5H377c-19.3,0-26.4-3.2-28.8-5c-3.4,2.4-7.5,3.6-11.8,3.6c-1.2,0-2.7-0.1-4.1-0.9c-1-0.6-1.8-1.5-2.4-2.7
					c-0.9,0.6-1.9,1.3-2.8,1.9l-0.6,0.4c-1.3,0.8-2.6,1.6-3.9,2.3C321.2,56.9,320,57.1,319.1,57.1z M336.7,40.2
					c-1.2,0-2.2,0.5-3.1,1.4c-1.1,1.2-1.8,3.1-1.9,4.9c0.2-0.2,0.5-0.4,0.7-0.6l0.7-0.5c1.8-1.4,3.6-2.8,4.5-4.6
					c0.2-0.3,0.2-0.5,0.2-0.5C337.4,40.3,337.1,40.2,336.7,40.2z"/>
			</g>
			<path class="st0" d="M236.9,57.1h-25.4c-0.8,0-1.5-0.7-1.5-1.5s0.7-1.5,1.5-1.5h25.4c27.1,0,33.8-5.5,33.9-5.5
				c0.3-0.3,0.7-0.4,1.2-0.3c0.4,0.1,0.8,0.3,1,0.6c4.3,6.2,8.2,4.5,8.4,4.4c4.1-1.3,6.1-5.9,7-9.6c0.8-3.3,1.4-6.7,1.9-10.1
				c0.5-3.2,1-6.5,1.8-9.8c2-8.2,5.8-14.3,10.9-17.7c0.7-0.4,1.6-0.3,2,0.4c0.4,0.7,0.3,1.6-0.4,2c-5.7,3.8-8.4,10.7-9.7,15.9
				c-0.8,3.1-1.2,6.4-1.7,9.5c-0.5,3.4-1,6.9-1.9,10.3c-1.6,6.4-4.7,10.4-8.8,11.6c0,0-5.5,2.6-11-4.4
				C268.3,53.5,259.1,57.1,236.9,57.1z"/>
		</g>
		<rect x="276.2" y="205.4" class="st0" width="60.6" height="5.9"/>
		<path class="st0" d="M180.5,52.4c-7.6-0.3-16.2-0.9-24.8-2.6c-1.6-3.9-2.4-8.2-3.2-12.6c-0.3-1.4-0.5-2.9-0.8-4.3
			c-1.2-5.8-3.2-13-8.3-18.2c-0.4-0.4-1.5-1.5-3.1-1.5c0,0,0,0,0,0c-1.7,0-3.2,1.2-4,3.3c-1.8,4.7-1.4,9.8-1,13.3
			c0.8,5.6,2.1,9.9,4.3,13.4c0.7,1,1.4,2,2.2,2.9c-3.4-1.3-7.2-3-11-5.2c-0.3-0.4-0.6-0.7-1-0.8c-1.8-10.2-3.7-20.6-7-30.7
			c-1.1-3.4-2.8-7.1-6.4-8.5c-1.4-0.6-2.8-0.5-3.9,0.1c-1.8,1-2.1,3-2.2,3.8c-0.9,6.3,0.4,14,3.1,21.2c-5.8-5.9-12-11.8-19.5-15.9
			c-2.3-1.2-5.3-2.6-8.6-2.3c-1.1,0.1-2,1-2,2.2c-0.1,4.1,2.3,8,7.3,11.8c7.8,5.9,18.4,9.1,22.7,10.2c1.8,2.2,3.9,4.3,6.1,6.3
			c-10.7-2-22.1,0-31.5,5.7c-0.7,0.4-1.1,1.2-1.1,2c0,0.8,0.5,1.5,1.2,1.9c3.9,1.9,8.1,2.5,12.2,2.5c2.7,0,5.4-0.3,8-0.6
			c8-1,14.5-2.6,20.2-4.9c3.4,2,7,3.7,10.8,5.2c-4.7,1.8-9.7,3.9-13.8,7.2c-4.8,3.8-7.9,8.7-8.6,13.8c-0.3,2.5,0.8,3.6,1.6,4.1
			c0.6,0.3,1.2,0.5,1.7,0.5c1.1,0,2-0.5,2.4-0.7c9.3-5,17-12.4,24.4-19.5l2.3-2.2c1.4,0.3,2.7,0.7,4.1,1c0.1,0,0.1,0,0.2,0
			c9.3,1.9,18.6,2.6,26.7,3c0,0,0.1,0,0.1,0c1.2,0,2.2-0.9,2.2-2.1C182.6,53.5,181.7,52.5,180.5,52.4z M93.3,18
			c-2.7-2-4.3-3.9-5.1-5.8c1.2,0.3,2.4,0.9,3.5,1.5c5.3,2.9,10,6.8,14.3,11C101.1,22.8,96.6,20.4,93.3,18z M140.4,18
			C140.4,18,140.4,18,140.4,18c4.2,4.3,5.9,10.7,7,15.8c0.3,1.4,0.5,2.8,0.8,4.2c0.5,2.8,1,5.7,1.8,8.6c-2.5-1.1-4.9-3.1-6.6-5.8
			c-1.9-3-3-6.7-3.7-11.6C139,24.3,139.2,20.9,140.4,18z M114.7,5.3c0-0.2,0-0.3,0.1-0.4c0,0,0,0,0,0c2,0.8,3.1,3.4,3.9,5.8
			c2.8,8.4,4.6,17.2,6.1,25.9c0,0-0.1-0.1-0.1-0.1C117.6,28.4,113.3,14.7,114.7,5.3z M107.8,45.1c-4.1,0.5-8.7,0.9-13,0.1
			c8-3.5,17.1-4.3,25.6-2.5C116.7,43.7,112.5,44.5,107.8,45.1z M121.7,70.1c0.8-3.5,3.2-6.9,6.7-9.6c3.5-2.8,7.6-4.6,12.7-6.5
			c0.5-0.2,0.9-0.3,1.4-0.5C136,59.6,129.4,65.8,121.7,70.1z"/>
		<path class="st0" d="M531.1,43.7c-9.4-5.7-20.8-7.6-31.5-5.7c2.3-2,4.3-4.1,6.1-6.3c4.3-1.1,14.9-4.3,22.7-10.2
			c5-3.8,7.4-7.6,7.3-11.8c0-1.1-0.9-2-2-2.2c-3.3-0.3-6.3,1-8.6,2.3c-7.6,4.1-13.7,10-19.5,15.9c2.8-7.2,4-14.9,3.1-21.2
			c-0.1-0.8-0.4-2.8-2.2-3.8c-1.1-0.6-2.5-0.6-3.9-0.1c-3.7,1.5-5.3,5.1-6.4,8.5c-3.3,10-5.2,20.5-7,30.7c-0.4,0.1-0.8,0.4-1,0.8
			c-3.8,2.2-7.5,3.9-11,5.2c0.8-0.9,1.5-1.8,2.2-2.9c2.2-3.5,3.6-7.8,4.3-13.4c0.5-3.4,0.9-8.6-1-13.3c-0.8-2.1-2.4-3.4-4-3.3
			c-1.6,0-2.7,1.1-3.1,1.5c-5.1,5.2-7.1,12.5-8.3,18.2c-0.3,1.4-0.5,2.9-0.8,4.3c-0.8,4.5-1.6,8.7-3.2,12.6
			c-8.6,1.7-17.2,2.3-24.8,2.6c-1.2,0.1-2.2,1.1-2.1,2.3c0,1.2,1,2.1,2.2,2.1c0,0,0.1,0,0.1,0c8.2-0.3,17.4-1,26.7-3
			c0,0,0.1,0,0.1,0c1.4-0.3,2.7-0.6,4.1-1l2.3,2.2c7.4,7.1,15.1,14.5,24.4,19.5c0.4,0.2,1.3,0.7,2.4,0.7c0.5,0,1.1-0.1,1.7-0.5
			c0.7-0.4,1.9-1.6,1.6-4c-0.7-5.1-3.7-10-8.6-13.8c-4.2-3.3-9.1-5.4-13.8-7.2c3.9-1.5,7.5-3.2,10.8-5.2c5.8,2.3,12.2,3.9,20.3,4.9
			c2.5,0.3,5.2,0.6,8,0.6c4.1,0,8.4-0.6,12.2-2.5c0.7-0.4,1.2-1.1,1.2-1.9C532.2,44.9,531.8,44.2,531.1,43.7z M527.4,13.7
			c1.1-0.6,2.3-1.2,3.5-1.5c-0.8,1.8-2.5,3.7-5.1,5.8c-3.3,2.5-7.7,4.8-12.8,6.8C517.4,20.6,522.1,16.6,527.4,13.7z M500.5,10.7
			c0.8-2.4,1.9-5,3.9-5.8c0,0,0,0,0,0c0,0.1,0,0.2,0.1,0.4c1.4,9.5-3,23.1-9.9,31.3c0,0-0.1,0.1-0.1,0.1
			C495.9,27.9,497.7,19.1,500.5,10.7z M471,38c0.3-1.4,0.5-2.8,0.8-4.2c1-5.1,2.7-11.5,6.9-15.8c0,0,0,0,0,0
			c1.1,2.9,1.3,6.3,0.7,11.1c-0.7,5-1.8,8.7-3.7,11.6c-1.7,2.7-4,4.7-6.5,5.8C470,43.7,470.5,40.8,471,38z M497.4,70.1
			c-7.7-4.3-14.3-10.5-20.8-16.7c0.5,0.2,0.9,0.3,1.4,0.5c5.1,1.9,9.2,3.8,12.7,6.5C494.3,63.2,496.6,66.6,497.4,70.1z M511.3,45.1
			c-4.7-0.6-8.8-1.4-12.6-2.4c8.4-1.9,17.6-1,25.6,2.5C520,46,515.4,45.6,511.3,45.1z"/>
		<circle class="st0" cx="11.7" cy="142.3" r="10"/>
		<circle class="st0" cx="591.6" cy="142.3" r="10"/>
		<g>
			<path class="st0" d="M126.4,134.2c-3,6.3-7.4,11.8-13.2,16.5c-5.8,4.7-10.9,7.1-15.5,7.1c-3.4,0-6.2-1.2-8.4-3.5
				c-2.2-2.3-3.2-5.3-3.2-9c0-8.6,3.3-16.6,9.9-24c6.6-7.3,13.7-11,21.5-11c4,0,8.3,1.1,13,3.4c0.6-3,1.5-4.9,2.7-5.7
				c1.2-0.8,4.2-1.4,9.1-1.9c-2.4,4.9-4.8,16.6-7,35.1l-0.6,4.8c13.4-8.1,23.8-16.3,31.1-24.7l3.9,2.5c-6.9,9-18.7,18.8-35.3,29.4
				c-0.1,1.2-0.2,2.1-0.2,2.7c-0.5,7.9-1.3,13.6-2.5,17.4c-1.2,3.7-3.3,7.3-6.4,10.6c-6.1,6.5-13.5,9.8-22.2,9.8
				c-4.7,0-8.4-1.1-11.4-3.3c-2.9-2.2-4.4-5.1-4.4-8.6c0-3.4,1.3-6.4,3.8-9c2.5-2.6,7.3-5.7,14.2-9.4c4.6-2.4,11.1-6,19.5-10.8
				L126.4,134.2z M128.8,122c-4.1-4.3-8.5-6.5-13.4-6.5c-4.6,0-9,2.9-13.1,8.7c-4.1,5.8-6.1,12-6.1,18.5c0,4.6,1.7,6.9,5.1,6.9
				c3.3,0,7.7-2.8,13.2-8.3C120,135.9,124.8,129.4,128.8,122z M124.3,158.9c-1.8,1.1-5.5,3.2-11,6.3c-10.8,6.1-16.2,11.5-16.2,16.1
				c0,2.1,0.9,3.8,2.6,5.1c1.8,1.3,4,2,6.7,2C118.4,188.4,124.3,178.6,124.3,158.9z"/>
			<path class="st0" d="M166.2,142.8c0,9.1,3.9,13.7,11.6,13.7c6.7,0,14.1-3.2,22.2-9.6s15.4-14.8,21.9-25.3l4,2.2
				c-6.1,11.4-14.1,20.9-23.9,28.4c-9.8,7.5-19.1,11.3-27.9,11.3c-5.6,0-10.1-1.8-13.4-5.4c-3.3-3.6-4.9-8.6-4.9-14.9
				c0-9.1,3-16.8,8.9-23.3c5.9-6.4,13.1-9.7,21.4-9.7c4,0,7.3,1,9.7,3s3.6,4.8,3.6,8.2c0,5.6-3.4,10.6-10.1,14.9
				C182.7,140.7,174.9,142.8,166.2,142.8z M166.5,138.3c6.5-0.3,12.1-2.2,16.8-5.6c4.7-3.4,7-7.3,7-11.8c0-4-1.8-6-5.4-6
				c-4.3,0-8.2,2.3-11.8,6.8C169.6,126.3,167.4,131.8,166.5,138.3z"/>
			<path class="st0" d="M228.5,145.5c11.1-23.5,21.1-35.3,29.9-35.3c6.9,0,10.4,6.9,10.4,20.7l0.1,5.7c0,6.6,0.3,11.1,1,13.6
				s1.9,3.8,3.7,3.8c2.7,0,5.8-2.1,9.2-6.4c3.4-4.3,9-12.9,16.7-25.9l3.9,2.3c-6.9,13-13,22.6-18.5,28.9c-5.4,6.3-10.3,9.4-14.6,9.4
				c-4,0-6.8-1.9-8.4-5.8c-1.6-3.8-2.4-10.5-2.4-20l0-4c0-5.1-0.3-8.7-1-10.8c-0.7-2.1-1.8-3.1-3.4-3.1c-4.1,0-10.8,8.2-20,24.7
				c-2.3,4-3.7,6.6-4.4,7.8c-2.4,4.2-3.6,7.2-3.6,9.1c0,0.8,0.2,1.5,0.6,2.2c-1.8,0.8-3.3,1.1-4.6,1.1c-3.2,0-4.7-1.8-4.7-5.3
				c0-1,0.4-5.5,1.2-13.5l1-10.2c0.5-4.3,0.7-7.7,0.7-10c0-3.3-0.8-5.9-2.3-7.8c0.7-0.2,1.8-0.6,3.3-1.1c1.9-0.7,3.5-1,4.6-1
				c2.4,0,3.7,1.8,3.7,5.4c0,1.9-0.2,5.1-0.7,9.7c-0.1,1-0.2,2-0.3,2.9L228.5,145.5z"/>
			<path class="st0" d="M333,133.5c-4.3,8.9-9.1,16.2-14.5,21.7c-5.3,5.6-10.1,8.4-14.3,8.4c-3.4,0-6.2-1.2-8.3-3.6
				c-2.1-2.4-3.2-5.5-3.2-9.4c0-4.9,1.7-14,5-27.2c0.9-3.6,1.4-5.8,1.4-6.8s-0.3-2-0.9-3l6.5,0c2.8,0,4.2,1.1,4.2,3.2
				c0,1.3-0.9,5.2-2.7,11.6c-0.6,1.9-0.9,3.2-1.1,3.9l-0.7,2.9c-1.4,5.7-2.1,10.1-2.1,13.1c0,4.6,1.6,6.9,4.8,6.9
				c5.2,0,11.9-6.5,19.9-19.4c6.6-10.5,9.9-18,9.9-22.5c0-0.6-0.2-1.2-0.6-1.9c2.6-0.7,4.7-1.1,6.5-1.1c2.8,0,4.1,0.8,4.1,2.5
				c0,0.4-0.1,1-0.4,1.8c-0.1,0.5-0.4,1.6-0.9,3.4c-0.1,0.3-0.4,1.6-0.9,3.8c-0.4,1.5-0.7,2.7-0.9,3.7l-0.5,2.2
				c-1,5.2-1.5,10-1.5,14.5c0,6.9,1.7,10.3,5,10.3c7.3,0,16.6-10.3,27.9-30.9l3.9,2.3c-12.8,24.7-24.6,37-35.2,37
				c-7.2,0-10.7-6.2-10.7-18.6C332.6,139.9,332.7,137,333,133.5z"/>
			<path class="st0" d="M421.2,124c-7.1,12.4-14.2,22.1-21.5,29.1c-7.2,7-13.7,10.5-19.5,10.5c-3.5,0-6.3-1.1-8.5-3.4
				s-3.2-5.3-3.2-9c0-1.4,0.3-3.6,0.9-6.7l1-5.2c1.5-7.4,2.3-12.7,2.3-15.7c0-1.8-0.5-3.2-1.6-4.4c4.1-0.9,6.6-1.4,7.7-1.4
				c2.3,0,3.5,1.6,3.5,4.9c0,2.4-0.5,5.9-1.4,10.4l-1.8,9.1c-0.9,4.4-1.4,7.3-1.4,8.6c0,3.9,1.6,5.8,4.9,5.8c3.9,0,9.1-3.3,15.6-9.9
				c6.5-6.6,12.8-14.9,18.9-25L421.2,124z M379.4,100.3l0.7,0c2.1-0.1,5.1-1.2,9-3.2c3.9-2,7-4.1,9.2-6.2c-1.4,4.3-3.8,7.9-7.3,10.8
				c-5.3,4.4-8.9,6.7-10.8,6.7c-1.3,0-1.9-0.8-1.9-2.3C378.3,104.1,378.7,102.1,379.4,100.3z"/>
			<path class="st0" d="M423.7,145.5c11.1-23.5,21.1-35.3,29.9-35.3c6.9,0,10.4,6.9,10.4,20.7l0.1,5.7c0,6.6,0.3,11.1,1,13.6
				s1.9,3.8,3.7,3.8c2.7,0,5.8-2.1,9.2-6.4c3.4-4.3,9-12.9,16.7-25.9l3.9,2.3c-6.9,13-13,22.6-18.5,28.9c-5.4,6.3-10.3,9.4-14.6,9.4
				c-4,0-6.8-1.9-8.4-5.8c-1.6-3.8-2.4-10.5-2.4-20l0-4c0-5.1-0.3-8.7-1-10.8c-0.7-2.1-1.8-3.1-3.4-3.1c-4.1,0-10.8,8.2-20,24.7
				c-2.3,4-3.7,6.6-4.4,7.8c-2.4,4.2-3.6,7.2-3.6,9.1c0,0.8,0.2,1.5,0.6,2.2c-1.8,0.8-3.3,1.1-4.6,1.1c-3.2,0-4.7-1.8-4.7-5.3
				c0-1,0.4-5.5,1.2-13.5l1-10.2c0.5-4.3,0.7-7.7,0.7-10c0-3.3-0.8-5.9-2.3-7.8c0.7-0.2,1.8-0.6,3.3-1.1c1.9-0.7,3.5-1,4.6-1
				c2.4,0,3.7,1.8,3.7,5.4c0,1.9-0.2,5.1-0.7,9.7c-0.1,1-0.2,2-0.3,2.9L423.7,145.5z"/>
			<path class="st0" d="M495.2,142.8c0,9.1,3.9,13.7,11.6,13.7c6.7,0,14.1-3.2,22.2-9.6s15.4-14.8,21.9-25.3l4,2.2
				c-6.1,11.4-14.1,20.9-23.9,28.4c-9.8,7.5-19.1,11.3-27.9,11.3c-5.6,0-10.1-1.8-13.4-5.4c-3.3-3.6-4.9-8.6-4.9-14.9
				c0-9.1,3-16.8,8.9-23.3c5.9-6.4,13.1-9.7,21.4-9.7c4,0,7.3,1,9.7,3s3.6,4.8,3.6,8.2c0,5.6-3.4,10.6-10.1,14.9
				C511.7,140.7,503.9,142.8,495.2,142.8z M495.5,138.3c6.5-0.3,12.1-2.2,16.8-5.6c4.7-3.4,7-7.3,7-11.8c0-4-1.8-6-5.4-6
				c-4.3,0-8.2,2.3-11.8,6.8C498.7,126.3,496.4,131.8,495.5,138.3z"/>
		</g>
		<g>
			<path class="st0" d="M197.4,233.2l-4.6,17.7l6.6,1.7l-0.9,3.6l-10.7-2.8l5.5-21.2L197.4,233.2z"/>
			<path class="st0" d="M217.2,237.9l-4.7,21.4l-4.2-0.9L213,237L217.2,237.9z"/>
			<path class="st0" d="M239,245.7l-7.3-1.3l-0.8,4.8l6.8,1.2l-0.6,3.6l-6.8-1.2l-1.7,9.5l-4.2-0.7l3.8-21.6l11.5,2L239,245.7z"/>
			<path class="st0" d="M261,248.7l-7.8-1l-0.6,4.9l7.5,0.9l-0.5,3.7l-7.5-0.9l-0.7,5.9l7.8,1l-0.5,3.7l-12.1-1.5l2.7-21.8l12.1,1.5
				L261,248.7z"/>
			<path class="st0" d="M300.8,268.7c-1.3,0.6-3.1,1.2-5.5,1.1c-3.8-0.1-6.1-1.5-7.9-3.3c-2.4-2.5-3.3-5.3-3.2-8.5
				c0.1-4,1.9-6.8,3.8-8.5c2.3-2,5-2.7,8.2-2.6c1.5,0.1,3.4,0.4,5.3,1.5l-0.2,5c-1.9-2.4-4.4-2.6-5.2-2.7c-4.4-0.2-7.4,3.4-7.5,7.4
				c-0.2,4.9,3.5,7.6,7.2,7.8c2,0.1,3.9-0.8,5.2-2.2L300.8,268.7z"/>
			<path class="st0" d="M316,256l9.3-0.3l-0.3-8.5l4.3-0.1L330,269l-4.3,0.1l-0.3-9.8l-9.3,0.3l0.3,9.8l-4.3,0.1l-0.7-21.9l4.3-0.1
				L316,256z"/>
			<path class="st0" d="M355,262.3l-8.8,0.9l-1.5,4.8l-4.6,0.5l7.2-22.8l3.3-0.3l11.4,20.9l-4.6,0.5L355,262.3z M353.4,258.9
				l-3.9-7.5l-2.3,8.2L353.4,258.9z"/>
			<path class="st0" d="M372,264.7l-3.9-21.6l2.9-0.5l15.7,12.1l-2.6-14.4l4.2-0.8l3.9,21.6l-2.9,0.5l-15.7-12.1l2.6,14.4L372,264.7
				z"/>
			<path class="st0" d="M412.4,244.2l9.7-2.6l0.1,0.3c0.4,1.4,1.4,5.9-0.8,9.6c-1.6,2.8-4.2,4.1-6.8,4.8c-2.6,0.7-5.5,0.9-8.5-0.8
				c-0.9-0.5-4-2.6-5.3-7.4c-1.1-4.1,0.1-7.1,1-8.7c1.2-2,3.4-4.4,7.5-5.4c1.6-0.4,3.3-0.6,5.2-0.2c1.6,0.3,3.4,1.2,5,2.8l-3.1,2.9
				c-1.1-1.2-2.4-1.7-3.1-1.9c-1-0.2-2.2-0.1-3.2,0.1c-1.7,0.4-3.4,1.5-4.4,3.2c-0.9,1.5-1.3,3.8-0.7,6.2c0.7,2.8,2.4,4.2,3.5,4.8
				c1.2,0.7,2.9,1.2,5.2,0.6c1.4-0.4,2.9-1.2,3.8-2.4c0.7-0.9,1.2-2.2,1.2-3.8l-5.5,1.4L412.4,244.2z"/>
			<path class="st0" d="M441.8,228.4l-7.5,2.5l1.6,4.6l7.2-2.4l1.2,3.5L437,239l1.9,5.7l7.5-2.5l1.2,3.5l-11.5,3.9l-7-20.8l11.5-3.9
				L441.8,228.4z"/>
		</g>
	</g>
</g>
</svg>
